<svg xmlns="http://www.w3.org/2000/svg" viewBox="0 0 288 288">
  <defs>
    <style>
      .a{fill:url(#a);}.b{fill:none;}.c{isolation:isolate;}.d{mix-blend-mode:overlay;}.e{clip-path:url(#c);}.f{opacity:0.8;}.g{fill:#595959;}.h{opacity:0.3;}.i{clip-path:url(#d);}
    </style>
    <radialGradient id="a" cx="110" cy="44.58" r="273.7" gradientUnits="userSpaceOnUse">
      <stop offset="0" stop-color="#fff"/>
      <stop offset=".32" stop-color="#fbfbfb"/>
      <stop offset=".66" stop-color="#ededed"/>
      <stop offset="1" stop-color="#d9d9d9"/>
    </radialGradient>
    <clipPath id="c">
      <path d="M0 0h288v288H0z" class="a"/>
    </clipPath>
    <clipPath id="d">
      <path d="M0 0h288v288H0z" class="b"/>
    </clipPath>
  </defs>
  <g class="c">
    <g class="d">
      <path d="M0 0h288v288H0z" class="a"/>
      <g class="e">
        <g class="f">
          <path d="M71 236.14a.38.38 0 0 1-.18 0L53 226.21a.37.37 0 0 1 0-.68l22.61-9.24a.38.38 0 0 1 .51.44l-4.78 19.12a.37.37 0 0 1-.21.25.38.38 0 0 1-.13.04zm-17-10.21l16.72 9.27 4.48-17.93z" class="g"/>
          <path d="M53.14 226.26a.37.37 0 0 1-.28-.63l27.35-29.71a.37.37 0 0 1 .64.34l-4.74 20.47a.37.37 0 0 1-.22.26l-22.61 9.24a.36.36 0 0 1-.14.03zm26.66-28.79L54.55 224.9l20.88-8.53z" class="g"/>
          <path d="M75.75 217a.38.38 0 0 1-.37-.46l4.74-20.47a.37.37 0 0 1 .1-.18l24.18-23.48a.38.38 0 0 1 .58.48l-28.91 44a.37.37 0 0 1-.32.11zm5.08-20.66l-4.24 18.33 25.88-39.34z" class="g"/>
          <path d="M75.75 217a.38.38 0 0 1-.31-.58l28.91-44a.38.38 0 0 1 .37-.16l59.59 9.11a.38.38 0 0 1 .08.72L75.89 217zm29.09-43.92l-28.13 42.78L162.82 182z" class="g"/>
          <path d="M164.25 182.18h-.06l-59.59-9.11a.37.37 0 0 1-.3-.48l6.08-20.59a.37.37 0 0 1 .54-.22l53.45 29.62a.38.38 0 0 1 .27.36.38.38 0 0 1-.38.38zm-59.11-9.79l57.09 8.73L111 152.71zm-79.57 97.75a.37.37 0 0 1-.32-.57l27.57-43.88a.37.37 0 0 1 .5-.13l17.84 9.88a.37.37 0 0 1 0 .63l-45.4 34a.38.38 0 0 1-.19.07zm27.69-43.76L27 268.26l43.32-32.44z" class="g"/>
          <path d="M53.91 313.21a.38.38 0 0 1-.31-.17L25.26 270a.37.37 0 0 1 .09-.51l45.4-34a.38.38 0 0 1 .59.38l-17.07 77.05a.38.38 0 0 1-.3.29h-.06zm-27.83-43.35l27.65 42 16.66-75.21z" class="g"/>
          <path d="M53.91 313.21a.37.37 0 0 1-.37-.46l17.07-77.07a.36.36 0 0 1 .38-.29l112 3.76a.37.37 0 0 1 .17.7l-129 73.31a.38.38 0 0 1-.25.05zm17.37-77.06l-16.83 75.94 127.15-72.24z" class="g"/>
          <path d="M183 239.9l-112-3.76a.38.38 0 0 1-.35-.47l4.78-19.12a.38.38 0 0 1 .44-.28L183 239.15a.37.37 0 0 1 0 .75zm-111.55-4.49L178.73 239 76 217.09z" class="g"/>
          <path d="M182.95 239.9h-.08L75.67 217a.38.38 0 0 1-.06-.72l88.5-34.84a.38.38 0 0 1 .3 0 .37.37 0 0 1 .2.22l18.66 57.62a.37.37 0 0 1 .07.22.35.35 0 0 1-.38.38zM77 216.54L182.39 239 164 182.3z" class="g"/>
          <path d="M182.95 239.9a.37.37 0 0 1-.35-.52l25-62a.38.38 0 0 1 .38-.23.38.38 0 0 1 .34.29l14.05 60a.37.37 0 0 1-.35.46l-39 2zm24.87-61.1l-24.3 60.32 38-1.93z" class="g"/>
          <path d="M182.95 239.9a.38.38 0 0 1-.34-.26l-18.7-57.72a.38.38 0 0 1 0-.32.37.37 0 0 1 .28-.17l43.66-4.24a.36.36 0 0 1 .34.15.37.37 0 0 1 0 .37l-25 62a.38.38 0 0 1-.24.19zm-18.2-57.77L183 238.42 207.33 178z" class="g"/>
          <path d="M53.91 313.21a.38.38 0 0 1-.19-.7l129-73.31a.38.38 0 0 1 .43 0l61.62 51.49a.37.37 0 0 1-.2.66L53.95 313.21zm129-73.23L55.69 312.25l188-21.51z" class="g"/>
          <path d="M244.57 291.39a.37.37 0 0 1-.24-.09l-61.62-51.49a.37.37 0 0 1 .22-.66l39-2a.37.37 0 0 1 .36.23l22.57 53.38a.37.37 0 0 1 .09.24.35.35 0 0 1-.38.38zm-60.65-51.54l59.7 49.88-21.9-51.8z" class="g"/>
          <path d="M268.18 292.21l-23.61-.82a.38.38 0 0 1-.33-.23l-22.61-53.47a.37.37 0 0 1 .63-.39l46.22 54.3a.38.38 0 0 1-.3.61zm-23.36-1.56l22.52.79-44.08-51.79zM53.14 226.26a.38.38 0 0 1-.2-.06.38.38 0 0 1-.14-.46l18.75-45.46a.38.38 0 0 1 .33-.23.37.37 0 0 1 .35.2L80.81 196a.37.37 0 0 1-.05.43l-27.35 29.71a.38.38 0 0 1-.27.12zm18.8-45l-17.65 42.82 25.74-28z" class="g"/>
          <path d="M80.48 196.55h-.05a.37.37 0 0 1-.27-.19l-8.59-15.75a.38.38 0 0 1 .24-.54l32.77-7.74a.37.37 0 0 1 .35.63l-24.19 23.48a.37.37 0 0 1-.26.11zm-8-15.87l8.12 14.88 22.85-22.19z" class="g"/>
          <path d="M71.89 180.8a.38.38 0 0 1-.22-.68l38.85-28.27a.38.38 0 0 1 .58.41L105 172.8a.37.37 0 0 1-.27.26L72 180.79h-.11zm38.17-27.69l-36.44 26.52 30.75-7.26z" class="g"/>
          <path d="M164.25 182.18a.37.37 0 0 1-.18 0l-53.51-29.65a.38.38 0 0 1 0-.67l51.74-25.55a.37.37 0 0 1 .36 0 .38.38 0 0 1 .18.31l1.77 55.2a.38.38 0 0 1-.18.33.37.37 0 0 1-.18.03zm-52.7-30l52.31 29-1.73-54z" class="g"/>
          <path d="M110.74 152.53a.38.38 0 0 1-.37-.45l6.38-32a.37.37 0 0 1 .42-.3l45.35 6.46a.37.37 0 0 1 .11.71l-51.74 25.55a.37.37 0 0 1-.15.03zm6.68-32l-6.17 30.92 50-24.68z" class="g"/>
          <path d="M164.25 182.18a.38.38 0 0 1-.37-.36l-1.77-55.2a.37.37 0 0 1 .65-.26l45.44 51a.37.37 0 0 1-.24.62l-43.66 4.24zm-1.36-54.56l1.73 53.77 42.53-4.13z" class="g"/>
          <path d="M162.48 127h-.05l-45.35-6.46a.37.37 0 0 1-.32-.39l.39-8.79a.38.38 0 0 1 .5-.34l44.92 15.24a.38.38 0 0 1-.05.75zm-45-7.16l41 5.85-40.67-13.79z" class="g"/>
          <path d="M162.48 127h-.12l-45-15.25a.37.37 0 0 1 0-.69l34.51-16.59a.38.38 0 0 1 .52.22l10.42 31.73a.38.38 0 0 1 .07.22.37.37 0 0 1-.38.38zm-44-15.69L161.89 126 151.8 95.29z" class="g"/>
          <path d="M207.91 177.94a.37.37 0 0 1-.28-.12l-45.44-51a.38.38 0 0 1 0-.54l72.88-59.67a.37.37 0 0 1 .6.38l-27.39 110.66a.37.37 0 0 1-.27.27h-.09zM163 126.64l44.7 50.14 27-108.85z" class="g"/>
          <path d="M162.48 127h-.11a.37.37 0 0 1-.25-.24l-10.45-31.88a.38.38 0 0 1 .24-.47l83.34-27.83a.37.37 0 0 1 .36.65l-72.88 59.67a.37.37 0 0 1-.25.1zm-10-32l10.17 31 70.88-58zM53.91 313.21h-.09l-11.54-2.78a.37.37 0 0 1-.26-.22l-16.8-40.3a.38.38 0 0 1 .66-.35l28.33 43.07a.38.38 0 0 1-.3.58zm-11.27-3.48l10.44 2.52-25.62-38.94z" class="g"/>
          <path d="M314.25 173.89a.37.37 0 0 1-.3-.15L235.06 67.15a.38.38 0 0 1 .49-.55l103.72 61.5a.38.38 0 0 1 .14.5l-24.83 45.09a.38.38 0 0 1-.3.19zM236.76 68.2l77.44 104.62 24.37-44.26z" class="g"/>
          <path d="M207.91 177.94a.38.38 0 0 1-.29-.14.37.37 0 0 1-.07-.33L235 66.84a.37.37 0 0 1 .66-.13l78.89 106.59a.38.38 0 0 1-.29.6l-106.33 4.05zm27.62-110.15L208.4 177.17l105.13-4z" class="g"/>
          <path d="M283.77 211.18a.38.38 0 0 1-.29-.61L314 173.28a.37.37 0 0 1 .29-.14.38.38 0 0 1 .29.13l23.13 27.82a.38.38 0 0 1-.22.61l-53.6 9.46h-.07zm30.48-37.07l-29.55 36.15 52-9.18z" class="g"/>
          <path d="M268.18 292.21a.38.38 0 0 1-.29-.13l-46.22-54.3a.38.38 0 0 1 .14-.59l61.81-26.74a.38.38 0 0 1 .38.05.37.37 0 0 1 .13.36l-15.59 81a.38.38 0 0 1-.27.29h-.1zm-45.6-54.53L268 291l15.31-79.57z" class="g"/>
          <path d="M222 237.92a.38.38 0 0 1-.17 0 .38.38 0 0 1-.2-.25l-14.05-60a.37.37 0 0 1 .52-.43l75.86 33.24a.37.37 0 0 1 0 .69l-61.81 26.74a.37.37 0 0 1-.15.01zm-13.52-59.71L222.23 237l60.61-26.22z" class="g"/>
          <path d="M283.77 211.18a.37.37 0 0 1-.15 0l-75.86-33.24a.37.37 0 0 1 .14-.72l106.33-4.05a.36.36 0 0 1 .35.21.38.38 0 0 1 0 .4L284.06 211a.38.38 0 0 1-.29.18zm-74.21-33.3l74.1 32.47 29.77-36.42z" class="g"/>
        </g>
        <path d="M188.49 322l-90.54-4.09a.37.37 0 0 1-.18-.69l70.46-45a.38.38 0 0 1 .55.17l20.09 49.05a.37.37 0 0 1-.38.56zm-89.34-4.79l88.77 4-19.7-48.1z" class="h g"/>
        <path d="M340.39 454.17a.37.37 0 0 1-.25-.09l-151.9-132.21a.37.37 0 0 1-.11-.41l38.2-102a.37.37 0 0 1 .33-.24.37.37 0 0 1 .35.21l113.65 234.11a.37.37 0 0 1 .1.26.38.38 0 0 1-.37.37zM188.93 321.48l150.3 130.83-112.5-231.81z" class="h g"/>
        <path d="M188.49 322a.38.38 0 0 1-.35-.23l-20.09-49.05a.37.37 0 0 1 .09-.42l58.29-53a.37.37 0 0 1 .6.41l-38.2 102a.37.37 0 0 1-.34.24zm-19.64-49.33l19.63 47.93 37.32-99.69z" class="h g"/>
        <path d="M168.4 272.91a.38.38 0 0 1-.32-.56l48.72-83.58a.37.37 0 0 1 .68.08l9.52 30.58a.37.37 0 0 1-.11.39l-58.29 53a.38.38 0 0 1-.2.09zm48.62-83L170 270.62l56.3-51.19z" class="h g"/>
        <path d="M340.37 454.17a.38.38 0 0 1-.37-.17L226.35 219.71a.38.38 0 0 1 .22-.52l136.71-47.13a.37.37 0 0 1 .5.38l-23 281.39a.37.37 0 0 1-.3.34h-.07zM227.21 219.76l112.9 232.64L363 173zM-56 332.5a.36.36 0 0 1-.14 0 .37.37 0 0 1-.22-.42l32.07-160.43a.37.37 0 0 1 .43-.3L45 182.83a.38.38 0 0 1 .25.58l-101 148.92a.37.37 0 0 1-.25.17zm32.37-160.37l-31.66 158.25 99.59-146.9z" class="h g"/>
        <path d="M-56 332.5a.37.37 0 0 1-.32-.18.38.38 0 0 1 0-.4L44.63 183a.38.38 0 0 1 .35-.16.37.37 0 0 1 .31.23l53 134.29a.37.37 0 0 1-.31.51L-56 332.5zM44.85 184L-55.27 331.67l152.68-14.5zm205.59 7.11a.37.37 0 0 1-.11-.73l112.53-33.84a.37.37 0 0 1 .33.05.37.37 0 0 1 .16.29l.43 15.51a.38.38 0 0 1-.32.38l-113 18.33h-.06zm112.17-33.71L256 189.45l107-17.36z" class="h g"/>
        <path d="M226.69 219.92a.37.37 0 0 1-.29-.61l23.75-28.81a.38.38 0 0 1 .23-.13l113-18.33a.38.38 0 0 1 .18.72L226.81 219.9zm23.95-28.84l-22.81 27.67 131.32-45.28z" class="h g"/>
        <path d="M226.69 219.92h-.07a.38.38 0 0 1-.29-.26l-9.56-30.59a.38.38 0 0 1 .38-.49l33.31 1.78a.38.38 0 0 1 .27.61L227 219.79a.38.38 0 0 1-.31.13zm-9-30.56l9.2 29.42 22.84-27.7zm-172.75-5.78a.38.38 0 0 1-.23-.08l-67.59-54.15a.38.38 0 0 1-.12-.45.38.38 0 0 1 .39-.23l92.8 12a.38.38 0 0 1 .29.21.37.37 0 0 1 0 .36L45.26 183.4a.37.37 0 0 1-.26.18h-.06zm-66.31-54l66.21 53 24.7-41.26z" class="h g"/>
        <path d="M44.94 183.58h-.06L-24 172.07a.37.37 0 0 1-.31-.38L-23 129a.38.38 0 0 1 .22-.33.37.37 0 0 1 .39 0l67.53 54.1a.37.37 0 0 1 .22.34.36.36 0 0 1-.38.38zm-68.5-12.2l67.14 11.22-65.88-52.79z" class="h g"/>
        <path d="M106.37 205.82h-.13l-61.43-22.26a.38.38 0 0 1-.19-.54l25.21-42.12a.39.39 0 0 1 .33-.18.37.37 0 0 1 .32.19l36.22 64.36a.38.38 0 0 1-.33.55zM45.49 183l60.06 21.74-35.41-62.91z" class="h g"/>
        <path d="M168.4 272.91a.37.37 0 0 1-.28-.12l-62-67.09a.37.37 0 0 1 .22-.62l110.75-16.49a.37.37 0 0 1 .38.56l-48.72 83.58a.37.37 0 0 1-.28.18zm-61.27-67.2l61.2 66.2 48.07-82.47z" class="h g"/>
        <path d="M97.95 317.87a.37.37 0 0 1-.37-.4L106 205.41a.38.38 0 0 1 .65-.23l62 67.09a.37.37 0 0 1-.07.57l-70.46 45a.38.38 0 0 1-.17.03zm8.74-111.54l-8.31 110.45 69.45-44.32z" class="h g"/>
        <path d="M97.95 317.87a.37.37 0 0 1-.35-.24l-53-134.29a.38.38 0 0 1 .48-.49l61.44 22.24a.37.37 0 0 1 .25.38l-8.45 112.05a.37.37 0 0 1-.32.34h-.05zm-52.35-134l52.1 132L106 205.7z" class="h g"/>
      </g>
    </g>
    <g class="d i">
      <g class="f">
        <path d="M71 236.14a.38.38 0 0 1-.18 0L53 226.21a.37.37 0 0 1 0-.68l22.61-9.24a.38.38 0 0 1 .51.44l-4.78 19.12a.37.37 0 0 1-.21.25.38.38 0 0 1-.13.04zm-17-10.21l16.72 9.27 4.48-17.93z" class="g"/>
        <path d="M53.14 226.26a.37.37 0 0 1-.28-.63l27.35-29.71a.37.37 0 0 1 .64.34l-4.74 20.47a.37.37 0 0 1-.22.26l-22.61 9.24a.36.36 0 0 1-.14.03zm26.66-28.79L54.55 224.9l20.88-8.53z" class="g"/>
        <path d="M75.75 217a.38.38 0 0 1-.37-.46l4.74-20.47a.37.37 0 0 1 .1-.18l24.18-23.48a.38.38 0 0 1 .58.48l-28.91 44a.37.37 0 0 1-.32.11zm5.08-20.66l-4.24 18.33 25.88-39.34z" class="g"/>
        <path d="M75.75 217a.38.38 0 0 1-.31-.58l28.91-44a.38.38 0 0 1 .37-.16l59.59 9.11a.38.38 0 0 1 .08.72L75.89 217zm29.09-43.92l-28.13 42.78L162.82 182z" class="g"/>
        <path d="M164.25 182.18h-.06l-59.59-9.11a.37.37 0 0 1-.3-.48l6.08-20.59a.37.37 0 0 1 .54-.22l53.45 29.62a.38.38 0 0 1 .27.36.38.38 0 0 1-.38.38zm-59.11-9.79l57.09 8.73L111 152.71zm-79.57 97.75a.37.37 0 0 1-.32-.57l27.57-43.88a.37.37 0 0 1 .5-.13l17.84 9.88a.37.37 0 0 1 0 .63l-45.4 34a.38.38 0 0 1-.19.07zm27.69-43.76L27 268.26l43.32-32.44z" class="g"/>
        <path d="M53.91 313.21a.38.38 0 0 1-.31-.17L25.26 270a.37.37 0 0 1 .09-.51l45.4-34a.38.38 0 0 1 .59.38l-17.07 77.05a.38.38 0 0 1-.3.29h-.06zm-27.83-43.35l27.65 42 16.66-75.21z" class="g"/>
        <path d="M53.91 313.21a.37.37 0 0 1-.37-.46l17.07-77.07a.36.36 0 0 1 .38-.29l112 3.76a.37.37 0 0 1 .17.7l-129 73.31a.38.38 0 0 1-.25.05zm17.37-77.06l-16.83 75.94 127.15-72.24z" class="g"/>
        <path d="M183 239.9l-112-3.76a.38.38 0 0 1-.35-.47l4.78-19.12a.38.38 0 0 1 .44-.28L183 239.15a.37.37 0 0 1 0 .75zm-111.55-4.49L178.73 239 76 217.09z" class="g"/>
        <path d="M182.95 239.9h-.08L75.67 217a.38.38 0 0 1-.06-.72l88.5-34.84a.38.38 0 0 1 .3 0 .37.37 0 0 1 .2.22l18.66 57.62a.37.37 0 0 1 .07.22.35.35 0 0 1-.38.38zM77 216.54L182.39 239 164 182.3z" class="g"/>
        <path d="M182.95 239.9a.37.37 0 0 1-.35-.52l25-62a.38.38 0 0 1 .38-.23.38.38 0 0 1 .34.29l14.05 60a.37.37 0 0 1-.35.46l-39 2zm24.87-61.1l-24.3 60.32 38-1.93z" class="g"/>
        <path d="M182.95 239.9a.38.38 0 0 1-.34-.26l-18.7-57.72a.38.38 0 0 1 0-.32.37.37 0 0 1 .28-.17l43.66-4.24a.36.36 0 0 1 .34.15.37.37 0 0 1 0 .37l-25 62a.38.38 0 0 1-.24.19zm-18.2-57.77L183 238.42 207.33 178z" class="g"/>
        <path d="M53.91 313.21a.38.38 0 0 1-.19-.7l129-73.31a.38.38 0 0 1 .43 0l61.62 51.49a.37.37 0 0 1-.2.66L53.95 313.21zm129-73.23L55.69 312.25l188-21.51z" class="g"/>
        <path d="M244.57 291.39a.37.37 0 0 1-.24-.09l-61.62-51.49a.37.37 0 0 1 .22-.66l39-2a.37.37 0 0 1 .36.23l22.57 53.38a.37.37 0 0 1 .09.24.35.35 0 0 1-.38.38zm-60.65-51.54l59.7 49.88-21.9-51.8z" class="g"/>
        <path d="M268.18 292.21l-23.61-.82a.38.38 0 0 1-.33-.23l-22.61-53.47a.37.37 0 0 1 .63-.39l46.22 54.3a.38.38 0 0 1-.3.61zm-23.36-1.56l22.52.79-44.08-51.79zM53.14 226.26a.38.38 0 0 1-.2-.06.38.38 0 0 1-.14-.46l18.75-45.46a.38.38 0 0 1 .33-.23.37.37 0 0 1 .35.2L80.81 196a.37.37 0 0 1-.05.43l-27.35 29.71a.38.38 0 0 1-.27.12zm18.8-45l-17.65 42.82 25.74-28z" class="g"/>
        <path d="M80.48 196.55h-.05a.37.37 0 0 1-.27-.19l-8.59-15.75a.38.38 0 0 1 .24-.54l32.77-7.74a.37.37 0 0 1 .35.63l-24.19 23.48a.37.37 0 0 1-.26.11zm-8-15.87l8.12 14.88 22.85-22.19z" class="g"/>
        <path d="M71.89 180.8a.38.38 0 0 1-.22-.68l38.85-28.27a.38.38 0 0 1 .58.41L105 172.8a.37.37 0 0 1-.27.26L72 180.79h-.11zm38.17-27.69l-36.44 26.52 30.75-7.26z" class="g"/>
        <path d="M164.25 182.18a.37.37 0 0 1-.18 0l-53.51-29.65a.38.38 0 0 1 0-.67l51.74-25.55a.37.37 0 0 1 .36 0 .38.38 0 0 1 .18.31l1.77 55.2a.38.38 0 0 1-.18.33.37.37 0 0 1-.18.03zm-52.7-30l52.31 29-1.73-54z" class="g"/>
        <path d="M110.74 152.53a.38.38 0 0 1-.37-.45l6.38-32a.37.37 0 0 1 .42-.3l45.35 6.46a.37.37 0 0 1 .11.71l-51.74 25.55a.37.37 0 0 1-.15.03zm6.68-32l-6.17 30.92 50-24.68z" class="g"/>
        <path d="M164.25 182.18a.38.38 0 0 1-.37-.36l-1.77-55.2a.37.37 0 0 1 .65-.26l45.44 51a.37.37 0 0 1-.24.62l-43.66 4.24zm-1.36-54.56l1.73 53.77 42.53-4.13z" class="g"/>
        <path d="M162.48 127h-.05l-45.35-6.46a.37.37 0 0 1-.32-.39l.39-8.79a.38.38 0 0 1 .5-.34l44.92 15.24a.38.38 0 0 1-.05.75zm-45-7.16l41 5.85-40.67-13.79z" class="g"/>
        <path d="M162.48 127h-.12l-45-15.25a.37.37 0 0 1 0-.69l34.51-16.59a.38.38 0 0 1 .52.22l10.42 31.73a.38.38 0 0 1 .07.22.37.37 0 0 1-.38.38zm-44-15.69L161.89 126 151.8 95.29z" class="g"/>
        <path d="M207.91 177.94a.37.37 0 0 1-.28-.12l-45.44-51a.38.38 0 0 1 0-.54l72.88-59.67a.37.37 0 0 1 .6.38l-27.39 110.66a.37.37 0 0 1-.27.27h-.09zM163 126.64l44.7 50.14 27-108.85z" class="g"/>
        <path d="M162.48 127h-.11a.37.37 0 0 1-.25-.24l-10.45-31.88a.38.38 0 0 1 .24-.47l83.34-27.83a.37.37 0 0 1 .36.65l-72.88 59.67a.37.37 0 0 1-.25.1zm-10-32l10.17 31 70.88-58zM53.91 313.21h-.09l-11.54-2.78a.37.37 0 0 1-.26-.22l-16.8-40.3a.38.38 0 0 1 .66-.35l28.33 43.07a.38.38 0 0 1-.3.58zm-11.27-3.48l10.44 2.52-25.62-38.94z" class="g"/>
        <path d="M314.25 173.89a.37.37 0 0 1-.3-.15L235.06 67.15a.38.38 0 0 1 .49-.55l103.72 61.5a.38.38 0 0 1 .14.5l-24.83 45.09a.38.38 0 0 1-.3.19zM236.76 68.2l77.44 104.62 24.37-44.26z" class="g"/>
        <path d="M207.91 177.94a.38.38 0 0 1-.29-.14.37.37 0 0 1-.07-.33L235 66.84a.37.37 0 0 1 .66-.13l78.89 106.59a.38.38 0 0 1-.29.6l-106.33 4.05zm27.62-110.15L208.4 177.17l105.13-4z" class="g"/>
        <path d="M283.77 211.18a.38.38 0 0 1-.29-.61L314 173.28a.37.37 0 0 1 .29-.14.38.38 0 0 1 .29.13l23.13 27.82a.38.38 0 0 1-.22.61l-53.6 9.46h-.07zm30.48-37.07l-29.55 36.15 52-9.18z" class="g"/>
        <path d="M268.18 292.21a.38.38 0 0 1-.29-.13l-46.22-54.3a.38.38 0 0 1 .14-.59l61.81-26.74a.38.38 0 0 1 .38.05.37.37 0 0 1 .13.36l-15.59 81a.38.38 0 0 1-.27.29h-.1zm-45.6-54.53L268 291l15.31-79.57z" class="g"/>
        <path d="M222 237.92a.38.38 0 0 1-.17 0 .38.38 0 0 1-.2-.25l-14.05-60a.37.37 0 0 1 .52-.43l75.86 33.24a.37.37 0 0 1 0 .69l-61.81 26.74a.37.37 0 0 1-.15.01zm-13.52-59.71L222.23 237l60.61-26.22z" class="g"/>
        <path d="M283.77 211.18a.37.37 0 0 1-.15 0l-75.86-33.24a.37.37 0 0 1 .14-.72l106.33-4.05a.36.36 0 0 1 .35.21.38.38 0 0 1 0 .4L284.06 211a.38.38 0 0 1-.29.18zm-74.21-33.3l74.1 32.47 29.77-36.42z" class="g"/>
      </g>
      <path d="M188.49 322l-90.54-4.09a.37.37 0 0 1-.18-.69l70.46-45a.38.38 0 0 1 .55.17l20.09 49.05a.37.37 0 0 1-.38.56zm-89.34-4.79l88.77 4-19.7-48.1z" class="h g"/>
      <path d="M340.39 454.17a.37.37 0 0 1-.25-.09l-151.9-132.21a.37.37 0 0 1-.11-.41l38.2-102a.37.37 0 0 1 .33-.24.37.37 0 0 1 .35.21l113.65 234.11a.37.37 0 0 1 .1.26.38.38 0 0 1-.37.37zM188.93 321.48l150.3 130.83-112.5-231.81z" class="h g"/>
      <path d="M188.49 322a.38.38 0 0 1-.35-.23l-20.09-49.05a.37.37 0 0 1 .09-.42l58.29-53a.37.37 0 0 1 .6.41l-38.2 102a.37.37 0 0 1-.34.24zm-19.64-49.33l19.63 47.93 37.32-99.69z" class="h g"/>
      <path d="M168.4 272.91a.38.38 0 0 1-.32-.56l48.72-83.58a.37.37 0 0 1 .68.08l9.52 30.58a.37.37 0 0 1-.11.39l-58.29 53a.38.38 0 0 1-.2.09zm48.62-83L170 270.62l56.3-51.19z" class="h g"/>
      <path d="M340.37 454.17a.38.38 0 0 1-.37-.17L226.35 219.71a.38.38 0 0 1 .22-.52l136.71-47.13a.37.37 0 0 1 .5.38l-23 281.39a.37.37 0 0 1-.3.34h-.07zM227.21 219.76l112.9 232.64L363 173zM-56 332.5a.36.36 0 0 1-.14 0 .37.37 0 0 1-.22-.42l32.07-160.43a.37.37 0 0 1 .43-.3L45 182.83a.38.38 0 0 1 .25.58l-101 148.92a.37.37 0 0 1-.25.17zm32.37-160.37l-31.66 158.25 99.59-146.9z" class="h g"/>
      <path d="M-56 332.5a.37.37 0 0 1-.32-.18.38.38 0 0 1 0-.4L44.63 183a.38.38 0 0 1 .35-.16.37.37 0 0 1 .31.23l53 134.29a.37.37 0 0 1-.31.51L-56 332.5zM44.85 184L-55.27 331.67l152.68-14.5zm205.59 7.11a.37.37 0 0 1-.11-.73l112.53-33.84a.37.37 0 0 1 .33.05.37.37 0 0 1 .16.29l.43 15.51a.38.38 0 0 1-.32.38l-113 18.33h-.06zm112.17-33.71L256 189.45l107-17.36z" class="h g"/>
      <path d="M226.69 219.92a.37.37 0 0 1-.29-.61l23.75-28.81a.38.38 0 0 1 .23-.13l113-18.33a.38.38 0 0 1 .18.72L226.81 219.9zm23.95-28.84l-22.81 27.67 131.32-45.28z" class="h g"/>
      <path d="M226.69 219.92h-.07a.38.38 0 0 1-.29-.26l-9.56-30.59a.38.38 0 0 1 .38-.49l33.31 1.78a.38.38 0 0 1 .27.61L227 219.79a.38.38 0 0 1-.31.13zm-9-30.56l9.2 29.42 22.84-27.7zm-172.75-5.78a.38.38 0 0 1-.23-.08l-67.59-54.15a.38.38 0 0 1-.12-.45.38.38 0 0 1 .39-.23l92.8 12a.38.38 0 0 1 .29.21.37.37 0 0 1 0 .36L45.26 183.4a.37.37 0 0 1-.26.18h-.06zm-66.31-54l66.21 53 24.7-41.26z" class="h g"/>
      <path d="M44.94 183.58h-.06L-24 172.07a.37.37 0 0 1-.31-.38L-23 129a.38.38 0 0 1 .22-.33.37.37 0 0 1 .39 0l67.53 54.1a.37.37 0 0 1 .22.34.36.36 0 0 1-.38.38zm-68.5-12.2l67.14 11.22-65.88-52.79z" class="h g"/>
      <path d="M106.37 205.82h-.13l-61.43-22.26a.38.38 0 0 1-.19-.54l25.21-42.12a.39.39 0 0 1 .33-.18.37.37 0 0 1 .32.19l36.22 64.36a.38.38 0 0 1-.33.55zM45.49 183l60.06 21.74-35.41-62.91z" class="h g"/>
      <path d="M168.4 272.91a.37.37 0 0 1-.28-.12l-62-67.09a.37.37 0 0 1 .22-.62l110.75-16.49a.37.37 0 0 1 .38.56l-48.72 83.58a.37.37 0 0 1-.28.18zm-61.27-67.2l61.2 66.2 48.07-82.47z" class="h g"/>
      <path d="M97.95 317.87a.37.37 0 0 1-.37-.4L106 205.41a.38.38 0 0 1 .65-.23l62 67.09a.37.37 0 0 1-.07.57l-70.46 45a.38.38 0 0 1-.17.03zm8.74-111.54l-8.31 110.45 69.45-44.32z" class="h g"/>
      <path d="M97.95 317.87a.37.37 0 0 1-.35-.24l-53-134.29a.38.38 0 0 1 .48-.49l61.44 22.24a.37.37 0 0 1 .25.38l-8.45 112.05a.37.37 0 0 1-.32.34h-.05zm-52.35-134l52.1 132L106 205.7z" class="h g"/>
    </g>
    <g class="d i">
      <g class="f">
        <path d="M71 236.14a.38.38 0 0 1-.18 0L53 226.21a.37.37 0 0 1 0-.68l22.61-9.24a.38.38 0 0 1 .51.44l-4.78 19.12a.37.37 0 0 1-.21.25.38.38 0 0 1-.13.04zm-17-10.21l16.72 9.27 4.48-17.93z" class="g"/>
        <path d="M53.14 226.26a.37.37 0 0 1-.28-.63l27.35-29.71a.37.37 0 0 1 .64.34l-4.74 20.47a.37.37 0 0 1-.22.26l-22.61 9.24a.36.36 0 0 1-.14.03zm26.66-28.79L54.55 224.9l20.88-8.53z" class="g"/>
        <path d="M75.75 217a.38.38 0 0 1-.37-.46l4.74-20.47a.37.37 0 0 1 .1-.18l24.18-23.48a.38.38 0 0 1 .58.48l-28.91 44a.37.37 0 0 1-.32.11zm5.08-20.66l-4.24 18.33 25.88-39.34z" class="g"/>
        <path d="M75.75 217a.38.38 0 0 1-.31-.58l28.91-44a.38.38 0 0 1 .37-.16l59.59 9.11a.38.38 0 0 1 .08.72L75.89 217zm29.09-43.92l-28.13 42.78L162.82 182z" class="g"/>
        <path d="M164.25 182.18h-.06l-59.59-9.11a.37.37 0 0 1-.3-.48l6.08-20.59a.37.37 0 0 1 .54-.22l53.45 29.62a.38.38 0 0 1 .27.36.38.38 0 0 1-.38.38zm-59.11-9.79l57.09 8.73L111 152.71zm-79.57 97.75a.37.37 0 0 1-.32-.57l27.57-43.88a.37.37 0 0 1 .5-.13l17.84 9.88a.37.37 0 0 1 0 .63l-45.4 34a.38.38 0 0 1-.19.07zm27.69-43.76L27 268.26l43.32-32.44z" class="g"/>
        <path d="M53.91 313.21a.38.38 0 0 1-.31-.17L25.26 270a.37.37 0 0 1 .09-.51l45.4-34a.38.38 0 0 1 .59.38l-17.07 77.05a.38.38 0 0 1-.3.29h-.06zm-27.83-43.35l27.65 42 16.66-75.21z" class="g"/>
        <path d="M53.91 313.21a.37.37 0 0 1-.37-.46l17.07-77.07a.36.36 0 0 1 .38-.29l112 3.76a.37.37 0 0 1 .17.7l-129 73.31a.38.38 0 0 1-.25.05zm17.37-77.06l-16.83 75.94 127.15-72.24z" class="g"/>
        <path d="M183 239.9l-112-3.76a.38.38 0 0 1-.35-.47l4.78-19.12a.38.38 0 0 1 .44-.28L183 239.15a.37.37 0 0 1 0 .75zm-111.55-4.49L178.73 239 76 217.09z" class="g"/>
        <path d="M182.95 239.9h-.08L75.67 217a.38.38 0 0 1-.06-.72l88.5-34.84a.38.38 0 0 1 .3 0 .37.37 0 0 1 .2.22l18.66 57.62a.37.37 0 0 1 .07.22.35.35 0 0 1-.38.38zM77 216.54L182.39 239 164 182.3z" class="g"/>
        <path d="M182.95 239.9a.37.37 0 0 1-.35-.52l25-62a.38.38 0 0 1 .38-.23.38.38 0 0 1 .34.29l14.05 60a.37.37 0 0 1-.35.46l-39 2zm24.87-61.1l-24.3 60.32 38-1.93z" class="g"/>
        <path d="M182.95 239.9a.38.38 0 0 1-.34-.26l-18.7-57.72a.38.38 0 0 1 0-.32.37.37 0 0 1 .28-.17l43.66-4.24a.36.36 0 0 1 .34.15.37.37 0 0 1 0 .37l-25 62a.38.38 0 0 1-.24.19zm-18.2-57.77L183 238.42 207.33 178z" class="g"/>
        <path d="M53.91 313.21a.38.38 0 0 1-.19-.7l129-73.31a.38.38 0 0 1 .43 0l61.62 51.49a.37.37 0 0 1-.2.66L53.95 313.21zm129-73.23L55.69 312.25l188-21.51z" class="g"/>
        <path d="M244.57 291.39a.37.37 0 0 1-.24-.09l-61.62-51.49a.37.37 0 0 1 .22-.66l39-2a.37.37 0 0 1 .36.23l22.57 53.38a.37.37 0 0 1 .09.24.35.35 0 0 1-.38.38zm-60.65-51.54l59.7 49.88-21.9-51.8z" class="g"/>
        <path d="M268.18 292.21l-23.61-.82a.38.38 0 0 1-.33-.23l-22.61-53.47a.37.37 0 0 1 .63-.39l46.22 54.3a.38.38 0 0 1-.3.61zm-23.36-1.56l22.52.79-44.08-51.79zM53.14 226.26a.38.38 0 0 1-.2-.06.38.38 0 0 1-.14-.46l18.75-45.46a.38.38 0 0 1 .33-.23.37.37 0 0 1 .35.2L80.81 196a.37.37 0 0 1-.05.43l-27.35 29.71a.38.38 0 0 1-.27.12zm18.8-45l-17.65 42.82 25.74-28z" class="g"/>
        <path d="M80.48 196.55h-.05a.37.37 0 0 1-.27-.19l-8.59-15.75a.38.38 0 0 1 .24-.54l32.77-7.74a.37.37 0 0 1 .35.63l-24.19 23.48a.37.37 0 0 1-.26.11zm-8-15.87l8.12 14.88 22.85-22.19z" class="g"/>
        <path d="M71.89 180.8a.38.38 0 0 1-.22-.68l38.85-28.27a.38.38 0 0 1 .58.41L105 172.8a.37.37 0 0 1-.27.26L72 180.79h-.11zm38.17-27.69l-36.44 26.52 30.75-7.26z" class="g"/>
        <path d="M164.25 182.18a.37.37 0 0 1-.18 0l-53.51-29.65a.38.38 0 0 1 0-.67l51.74-25.55a.37.37 0 0 1 .36 0 .38.38 0 0 1 .18.31l1.77 55.2a.38.38 0 0 1-.18.33.37.37 0 0 1-.18.03zm-52.7-30l52.31 29-1.73-54z" class="g"/>
        <path d="M110.74 152.53a.38.38 0 0 1-.37-.45l6.38-32a.37.37 0 0 1 .42-.3l45.35 6.46a.37.37 0 0 1 .11.71l-51.74 25.55a.37.37 0 0 1-.15.03zm6.68-32l-6.17 30.92 50-24.68z" class="g"/>
        <path d="M164.25 182.18a.38.38 0 0 1-.37-.36l-1.77-55.2a.37.37 0 0 1 .65-.26l45.44 51a.37.37 0 0 1-.24.62l-43.66 4.24zm-1.36-54.56l1.73 53.77 42.53-4.13z" class="g"/>
        <path d="M162.48 127h-.05l-45.35-6.46a.37.37 0 0 1-.32-.39l.39-8.79a.38.38 0 0 1 .5-.34l44.92 15.24a.38.38 0 0 1-.05.75zm-45-7.16l41 5.85-40.67-13.79z" class="g"/>
        <path d="M162.48 127h-.12l-45-15.25a.37.37 0 0 1 0-.69l34.51-16.59a.38.38 0 0 1 .52.22l10.42 31.73a.38.38 0 0 1 .07.22.37.37 0 0 1-.38.38zm-44-15.69L161.89 126 151.8 95.29z" class="g"/>
        <path d="M207.91 177.94a.37.37 0 0 1-.28-.12l-45.44-51a.38.38 0 0 1 0-.54l72.88-59.67a.37.37 0 0 1 .6.38l-27.39 110.66a.37.37 0 0 1-.27.27h-.09zM163 126.64l44.7 50.14 27-108.85z" class="g"/>
        <path d="M162.48 127h-.11a.37.37 0 0 1-.25-.24l-10.45-31.88a.38.38 0 0 1 .24-.47l83.34-27.83a.37.37 0 0 1 .36.65l-72.88 59.67a.37.37 0 0 1-.25.1zm-10-32l10.17 31 70.88-58zM53.91 313.21h-.09l-11.54-2.78a.37.37 0 0 1-.26-.22l-16.8-40.3a.38.38 0 0 1 .66-.35l28.33 43.07a.38.38 0 0 1-.3.58zm-11.27-3.48l10.44 2.52-25.62-38.94z" class="g"/>
        <path d="M314.25 173.89a.37.37 0 0 1-.3-.15L235.06 67.15a.38.38 0 0 1 .49-.55l103.72 61.5a.38.38 0 0 1 .14.5l-24.83 45.09a.38.38 0 0 1-.3.19zM236.76 68.2l77.44 104.62 24.37-44.26z" class="g"/>
        <path d="M207.91 177.94a.38.38 0 0 1-.29-.14.37.37 0 0 1-.07-.33L235 66.84a.37.37 0 0 1 .66-.13l78.89 106.59a.38.38 0 0 1-.29.6l-106.33 4.05zm27.62-110.15L208.4 177.17l105.13-4z" class="g"/>
        <path d="M283.77 211.18a.38.38 0 0 1-.29-.61L314 173.28a.37.37 0 0 1 .29-.14.38.38 0 0 1 .29.13l23.13 27.82a.38.38 0 0 1-.22.61l-53.6 9.46h-.07zm30.48-37.07l-29.55 36.15 52-9.18z" class="g"/>
        <path d="M268.18 292.21a.38.38 0 0 1-.29-.13l-46.22-54.3a.38.38 0 0 1 .14-.59l61.81-26.74a.38.38 0 0 1 .38.05.37.37 0 0 1 .13.36l-15.59 81a.38.38 0 0 1-.27.29h-.1zm-45.6-54.53L268 291l15.31-79.57z" class="g"/>
        <path d="M222 237.92a.38.38 0 0 1-.17 0 .38.38 0 0 1-.2-.25l-14.05-60a.37.37 0 0 1 .52-.43l75.86 33.24a.37.37 0 0 1 0 .69l-61.81 26.74a.37.37 0 0 1-.15.01zm-13.52-59.71L222.23 237l60.61-26.22z" class="g"/>
        <path d="M283.77 211.18a.37.37 0 0 1-.15 0l-75.86-33.24a.37.37 0 0 1 .14-.72l106.33-4.05a.36.36 0 0 1 .35.21.38.38 0 0 1 0 .4L284.06 211a.38.38 0 0 1-.29.18zm-74.21-33.3l74.1 32.47 29.77-36.42z" class="g"/>
      </g>
      <path d="M188.49 322l-90.54-4.09a.37.37 0 0 1-.18-.69l70.46-45a.38.38 0 0 1 .55.17l20.09 49.05a.37.37 0 0 1-.38.56zm-89.34-4.79l88.77 4-19.7-48.1z" class="h g"/>
      <path d="M340.39 454.17a.37.37 0 0 1-.25-.09l-151.9-132.21a.37.37 0 0 1-.11-.41l38.2-102a.37.37 0 0 1 .33-.24.37.37 0 0 1 .35.21l113.65 234.11a.37.37 0 0 1 .1.26.38.38 0 0 1-.37.37zM188.93 321.48l150.3 130.83-112.5-231.81z" class="h g"/>
      <path d="M188.49 322a.38.38 0 0 1-.35-.23l-20.09-49.05a.37.37 0 0 1 .09-.42l58.29-53a.37.37 0 0 1 .6.41l-38.2 102a.37.37 0 0 1-.34.24zm-19.64-49.33l19.63 47.93 37.32-99.69z" class="h g"/>
      <path d="M168.4 272.91a.38.38 0 0 1-.32-.56l48.72-83.58a.37.37 0 0 1 .68.08l9.52 30.58a.37.37 0 0 1-.11.39l-58.29 53a.38.38 0 0 1-.2.09zm48.62-83L170 270.62l56.3-51.19z" class="h g"/>
      <path d="M340.37 454.17a.38.38 0 0 1-.37-.17L226.35 219.71a.38.38 0 0 1 .22-.52l136.71-47.13a.37.37 0 0 1 .5.38l-23 281.39a.37.37 0 0 1-.3.34h-.07zM227.21 219.76l112.9 232.64L363 173zM-56 332.5a.36.36 0 0 1-.14 0 .37.37 0 0 1-.22-.42l32.07-160.43a.37.37 0 0 1 .43-.3L45 182.83a.38.38 0 0 1 .25.58l-101 148.92a.37.37 0 0 1-.25.17zm32.37-160.37l-31.66 158.25 99.59-146.9z" class="h g"/>
      <path d="M-56 332.5a.37.37 0 0 1-.32-.18.38.38 0 0 1 0-.4L44.63 183a.38.38 0 0 1 .35-.16.37.37 0 0 1 .31.23l53 134.29a.37.37 0 0 1-.31.51L-56 332.5zM44.85 184L-55.27 331.67l152.68-14.5zm205.59 7.11a.37.37 0 0 1-.11-.73l112.53-33.84a.37.37 0 0 1 .33.05.37.37 0 0 1 .16.29l.43 15.51a.38.38 0 0 1-.32.38l-113 18.33h-.06zm112.17-33.71L256 189.45l107-17.36z" class="h g"/>
      <path d="M226.69 219.92a.37.37 0 0 1-.29-.61l23.75-28.81a.38.38 0 0 1 .23-.13l113-18.33a.38.38 0 0 1 .18.72L226.81 219.9zm23.95-28.84l-22.81 27.67 131.32-45.28z" class="h g"/>
      <path d="M226.69 219.92h-.07a.38.38 0 0 1-.29-.26l-9.56-30.59a.38.38 0 0 1 .38-.49l33.31 1.78a.38.38 0 0 1 .27.61L227 219.79a.38.38 0 0 1-.31.13zm-9-30.56l9.2 29.42 22.84-27.7zm-172.75-5.78a.38.38 0 0 1-.23-.08l-67.59-54.15a.38.38 0 0 1-.12-.45.38.38 0 0 1 .39-.23l92.8 12a.38.38 0 0 1 .29.21.37.37 0 0 1 0 .36L45.26 183.4a.37.37 0 0 1-.26.18h-.06zm-66.31-54l66.21 53 24.7-41.26z" class="h g"/>
      <path d="M44.94 183.58h-.06L-24 172.07a.37.37 0 0 1-.31-.38L-23 129a.38.38 0 0 1 .22-.33.37.37 0 0 1 .39 0l67.53 54.1a.37.37 0 0 1 .22.34.36.36 0 0 1-.38.38zm-68.5-12.2l67.14 11.22-65.88-52.79z" class="h g"/>
      <path d="M106.37 205.82h-.13l-61.43-22.26a.38.38 0 0 1-.19-.54l25.21-42.12a.39.39 0 0 1 .33-.18.37.37 0 0 1 .32.19l36.22 64.36a.38.38 0 0 1-.33.55zM45.49 183l60.06 21.74-35.41-62.91z" class="h g"/>
      <path d="M168.4 272.91a.37.37 0 0 1-.28-.12l-62-67.09a.37.37 0 0 1 .22-.62l110.75-16.49a.37.37 0 0 1 .38.56l-48.72 83.58a.37.37 0 0 1-.28.18zm-61.27-67.2l61.2 66.2 48.07-82.47z" class="h g"/>
      <path d="M97.95 317.87a.37.37 0 0 1-.37-.4L106 205.41a.38.38 0 0 1 .65-.23l62 67.09a.37.37 0 0 1-.07.57l-70.46 45a.38.38 0 0 1-.17.03zm8.74-111.54l-8.31 110.45 69.45-44.32z" class="h g"/>
      <path d="M97.95 317.87a.37.37 0 0 1-.35-.24l-53-134.29a.38.38 0 0 1 .48-.49l61.44 22.24a.37.37 0 0 1 .25.38l-8.45 112.05a.37.37 0 0 1-.32.34h-.05zm-52.35-134l52.1 132L106 205.7z" class="h g"/>
    </g>
    <g class="d i">
      <g class="f">
        <path d="M71 236.14a.38.38 0 0 1-.18 0L53 226.21a.37.37 0 0 1 0-.68l22.61-9.24a.38.38 0 0 1 .51.44l-4.78 19.12a.37.37 0 0 1-.21.25.38.38 0 0 1-.13.04zm-17-10.21l16.72 9.27 4.48-17.93z" class="g"/>
        <path d="M53.14 226.26a.37.37 0 0 1-.28-.63l27.35-29.71a.37.37 0 0 1 .64.34l-4.74 20.47a.37.37 0 0 1-.22.26l-22.61 9.24a.36.36 0 0 1-.14.03zm26.66-28.79L54.55 224.9l20.88-8.53z" class="g"/>
        <path d="M75.75 217a.38.38 0 0 1-.37-.46l4.74-20.47a.37.37 0 0 1 .1-.18l24.18-23.48a.38.38 0 0 1 .58.48l-28.91 44a.37.37 0 0 1-.32.11zm5.08-20.66l-4.24 18.33 25.88-39.34z" class="g"/>
        <path d="M75.75 217a.38.38 0 0 1-.31-.58l28.91-44a.38.38 0 0 1 .37-.16l59.59 9.11a.38.38 0 0 1 .08.72L75.89 217zm29.09-43.92l-28.13 42.78L162.82 182z" class="g"/>
        <path d="M164.25 182.18h-.06l-59.59-9.11a.37.37 0 0 1-.3-.48l6.08-20.59a.37.37 0 0 1 .54-.22l53.45 29.62a.38.38 0 0 1 .27.36.38.38 0 0 1-.38.38zm-59.11-9.79l57.09 8.73L111 152.71zm-79.57 97.75a.37.37 0 0 1-.32-.57l27.57-43.88a.37.37 0 0 1 .5-.13l17.84 9.88a.37.37 0 0 1 0 .63l-45.4 34a.38.38 0 0 1-.19.07zm27.69-43.76L27 268.26l43.32-32.44z" class="g"/>
        <path d="M53.91 313.21a.38.38 0 0 1-.31-.17L25.26 270a.37.37 0 0 1 .09-.51l45.4-34a.38.38 0 0 1 .59.38l-17.07 77.05a.38.38 0 0 1-.3.29h-.06zm-27.83-43.35l27.65 42 16.66-75.21z" class="g"/>
        <path d="M53.91 313.21a.37.37 0 0 1-.37-.46l17.07-77.07a.36.36 0 0 1 .38-.29l112 3.76a.37.37 0 0 1 .17.7l-129 73.31a.38.38 0 0 1-.25.05zm17.37-77.06l-16.83 75.94 127.15-72.24z" class="g"/>
        <path d="M183 239.9l-112-3.76a.38.38 0 0 1-.35-.47l4.78-19.12a.38.38 0 0 1 .44-.28L183 239.15a.37.37 0 0 1 0 .75zm-111.55-4.49L178.73 239 76 217.09z" class="g"/>
        <path d="M182.95 239.9h-.08L75.67 217a.38.38 0 0 1-.06-.72l88.5-34.84a.38.38 0 0 1 .3 0 .37.37 0 0 1 .2.22l18.66 57.62a.37.37 0 0 1 .07.22.35.35 0 0 1-.38.38zM77 216.54L182.39 239 164 182.3z" class="g"/>
        <path d="M182.95 239.9a.37.37 0 0 1-.35-.52l25-62a.38.38 0 0 1 .38-.23.38.38 0 0 1 .34.29l14.05 60a.37.37 0 0 1-.35.46l-39 2zm24.87-61.1l-24.3 60.32 38-1.93z" class="g"/>
        <path d="M182.95 239.9a.38.38 0 0 1-.34-.26l-18.7-57.72a.38.38 0 0 1 0-.32.37.37 0 0 1 .28-.17l43.66-4.24a.36.36 0 0 1 .34.15.37.37 0 0 1 0 .37l-25 62a.38.38 0 0 1-.24.19zm-18.2-57.77L183 238.42 207.33 178z" class="g"/>
        <path d="M53.91 313.21a.38.38 0 0 1-.19-.7l129-73.31a.38.38 0 0 1 .43 0l61.62 51.49a.37.37 0 0 1-.2.66L53.95 313.21zm129-73.23L55.69 312.25l188-21.51z" class="g"/>
        <path d="M244.57 291.39a.37.37 0 0 1-.24-.09l-61.62-51.49a.37.37 0 0 1 .22-.66l39-2a.37.37 0 0 1 .36.23l22.57 53.38a.37.37 0 0 1 .09.24.35.35 0 0 1-.38.38zm-60.65-51.54l59.7 49.88-21.9-51.8z" class="g"/>
        <path d="M268.18 292.21l-23.61-.82a.38.38 0 0 1-.33-.23l-22.61-53.47a.37.37 0 0 1 .63-.39l46.22 54.3a.38.38 0 0 1-.3.61zm-23.36-1.56l22.52.79-44.08-51.79zM53.14 226.26a.38.38 0 0 1-.2-.06.38.38 0 0 1-.14-.46l18.75-45.46a.38.38 0 0 1 .33-.23.37.37 0 0 1 .35.2L80.81 196a.37.37 0 0 1-.05.43l-27.35 29.71a.38.38 0 0 1-.27.12zm18.8-45l-17.65 42.82 25.74-28z" class="g"/>
        <path d="M80.48 196.55h-.05a.37.37 0 0 1-.27-.19l-8.59-15.75a.38.38 0 0 1 .24-.54l32.77-7.74a.37.37 0 0 1 .35.63l-24.19 23.48a.37.37 0 0 1-.26.11zm-8-15.87l8.12 14.88 22.85-22.19z" class="g"/>
        <path d="M71.89 180.8a.38.38 0 0 1-.22-.68l38.85-28.27a.38.38 0 0 1 .58.41L105 172.8a.37.37 0 0 1-.27.26L72 180.79h-.11zm38.17-27.69l-36.44 26.52 30.75-7.26z" class="g"/>
        <path d="M164.25 182.18a.37.37 0 0 1-.18 0l-53.51-29.65a.38.38 0 0 1 0-.67l51.74-25.55a.37.37 0 0 1 .36 0 .38.38 0 0 1 .18.31l1.77 55.2a.38.38 0 0 1-.18.33.37.37 0 0 1-.18.03zm-52.7-30l52.31 29-1.73-54z" class="g"/>
        <path d="M110.74 152.53a.38.38 0 0 1-.37-.45l6.38-32a.37.37 0 0 1 .42-.3l45.35 6.46a.37.37 0 0 1 .11.71l-51.74 25.55a.37.37 0 0 1-.15.03zm6.68-32l-6.17 30.92 50-24.68z" class="g"/>
        <path d="M164.25 182.18a.38.38 0 0 1-.37-.36l-1.77-55.2a.37.37 0 0 1 .65-.26l45.44 51a.37.37 0 0 1-.24.62l-43.66 4.24zm-1.36-54.56l1.73 53.77 42.53-4.13z" class="g"/>
        <path d="M162.48 127h-.05l-45.35-6.46a.37.37 0 0 1-.32-.39l.39-8.79a.38.38 0 0 1 .5-.34l44.92 15.24a.38.38 0 0 1-.05.75zm-45-7.16l41 5.85-40.67-13.79z" class="g"/>
        <path d="M162.48 127h-.12l-45-15.25a.37.37 0 0 1 0-.69l34.51-16.59a.38.38 0 0 1 .52.22l10.42 31.73a.38.38 0 0 1 .07.22.37.37 0 0 1-.38.38zm-44-15.69L161.89 126 151.8 95.29z" class="g"/>
        <path d="M207.91 177.94a.37.37 0 0 1-.28-.12l-45.44-51a.38.38 0 0 1 0-.54l72.88-59.67a.37.37 0 0 1 .6.38l-27.39 110.66a.37.37 0 0 1-.27.27h-.09zM163 126.64l44.7 50.14 27-108.85z" class="g"/>
        <path d="M162.48 127h-.11a.37.37 0 0 1-.25-.24l-10.45-31.88a.38.38 0 0 1 .24-.47l83.34-27.83a.37.37 0 0 1 .36.65l-72.88 59.67a.37.37 0 0 1-.25.1zm-10-32l10.17 31 70.88-58zM53.91 313.21h-.09l-11.54-2.78a.37.37 0 0 1-.26-.22l-16.8-40.3a.38.38 0 0 1 .66-.35l28.33 43.07a.38.38 0 0 1-.3.58zm-11.27-3.48l10.44 2.52-25.62-38.94z" class="g"/>
        <path d="M314.25 173.89a.37.37 0 0 1-.3-.15L235.06 67.15a.38.38 0 0 1 .49-.55l103.72 61.5a.38.38 0 0 1 .14.5l-24.83 45.09a.38.38 0 0 1-.3.19zM236.76 68.2l77.44 104.62 24.37-44.26z" class="g"/>
        <path d="M207.91 177.94a.38.38 0 0 1-.29-.14.37.37 0 0 1-.07-.33L235 66.84a.37.37 0 0 1 .66-.13l78.89 106.59a.38.38 0 0 1-.29.6l-106.33 4.05zm27.62-110.15L208.4 177.17l105.13-4z" class="g"/>
        <path d="M283.77 211.18a.38.38 0 0 1-.29-.61L314 173.28a.37.37 0 0 1 .29-.14.38.38 0 0 1 .29.13l23.13 27.82a.38.38 0 0 1-.22.61l-53.6 9.46h-.07zm30.48-37.07l-29.55 36.15 52-9.18z" class="g"/>
        <path d="M268.18 292.21a.38.38 0 0 1-.29-.13l-46.22-54.3a.38.38 0 0 1 .14-.59l61.81-26.74a.38.38 0 0 1 .38.05.37.37 0 0 1 .13.36l-15.59 81a.38.38 0 0 1-.27.29h-.1zm-45.6-54.53L268 291l15.31-79.57z" class="g"/>
        <path d="M222 237.92a.38.38 0 0 1-.17 0 .38.38 0 0 1-.2-.25l-14.05-60a.37.37 0 0 1 .52-.43l75.86 33.24a.37.37 0 0 1 0 .69l-61.81 26.74a.37.37 0 0 1-.15.01zm-13.52-59.71L222.23 237l60.61-26.22z" class="g"/>
        <path d="M283.77 211.18a.37.37 0 0 1-.15 0l-75.86-33.24a.37.37 0 0 1 .14-.72l106.33-4.05a.36.36 0 0 1 .35.21.38.38 0 0 1 0 .4L284.06 211a.38.38 0 0 1-.29.18zm-74.21-33.3l74.1 32.47 29.77-36.42z" class="g"/>
      </g>
      <path d="M188.49 322l-90.54-4.09a.37.37 0 0 1-.18-.69l70.46-45a.38.38 0 0 1 .55.17l20.09 49.05a.37.37 0 0 1-.38.56zm-89.34-4.79l88.77 4-19.7-48.1z" class="h g"/>
      <path d="M340.39 454.17a.37.37 0 0 1-.25-.09l-151.9-132.21a.37.37 0 0 1-.11-.41l38.2-102a.37.37 0 0 1 .33-.24.37.37 0 0 1 .35.21l113.65 234.11a.37.37 0 0 1 .1.26.38.38 0 0 1-.37.37zM188.93 321.48l150.3 130.83-112.5-231.81z" class="h g"/>
      <path d="M188.49 322a.38.38 0 0 1-.35-.23l-20.09-49.05a.37.37 0 0 1 .09-.42l58.29-53a.37.37 0 0 1 .6.41l-38.2 102a.37.37 0 0 1-.34.24zm-19.64-49.33l19.63 47.93 37.32-99.69z" class="h g"/>
      <path d="M168.4 272.91a.38.38 0 0 1-.32-.56l48.72-83.58a.37.37 0 0 1 .68.08l9.52 30.58a.37.37 0 0 1-.11.39l-58.29 53a.38.38 0 0 1-.2.09zm48.62-83L170 270.62l56.3-51.19z" class="h g"/>
      <path d="M340.37 454.17a.38.38 0 0 1-.37-.17L226.35 219.71a.38.38 0 0 1 .22-.52l136.71-47.13a.37.37 0 0 1 .5.38l-23 281.39a.37.37 0 0 1-.3.34h-.07zM227.21 219.76l112.9 232.64L363 173zM-56 332.5a.36.36 0 0 1-.14 0 .37.37 0 0 1-.22-.42l32.07-160.43a.37.37 0 0 1 .43-.3L45 182.83a.38.38 0 0 1 .25.58l-101 148.92a.37.37 0 0 1-.25.17zm32.37-160.37l-31.66 158.25 99.59-146.9z" class="h g"/>
      <path d="M-56 332.5a.37.37 0 0 1-.32-.18.38.38 0 0 1 0-.4L44.63 183a.38.38 0 0 1 .35-.16.37.37 0 0 1 .31.23l53 134.29a.37.37 0 0 1-.31.51L-56 332.5zM44.85 184L-55.27 331.67l152.68-14.5zm205.59 7.11a.37.37 0 0 1-.11-.73l112.53-33.84a.37.37 0 0 1 .33.05.37.37 0 0 1 .16.29l.43 15.51a.38.38 0 0 1-.32.38l-113 18.33h-.06zm112.17-33.71L256 189.45l107-17.36z" class="h g"/>
      <path d="M226.69 219.92a.37.37 0 0 1-.29-.61l23.75-28.81a.38.38 0 0 1 .23-.13l113-18.33a.38.38 0 0 1 .18.72L226.81 219.9zm23.95-28.84l-22.81 27.67 131.32-45.28z" class="h g"/>
      <path d="M226.69 219.92h-.07a.38.38 0 0 1-.29-.26l-9.56-30.59a.38.38 0 0 1 .38-.49l33.31 1.78a.38.38 0 0 1 .27.61L227 219.79a.38.38 0 0 1-.31.13zm-9-30.56l9.2 29.42 22.84-27.7zm-172.75-5.78a.38.38 0 0 1-.23-.08l-67.59-54.15a.38.38 0 0 1-.12-.45.38.38 0 0 1 .39-.23l92.8 12a.38.38 0 0 1 .29.21.37.37 0 0 1 0 .36L45.26 183.4a.37.37 0 0 1-.26.18h-.06zm-66.31-54l66.21 53 24.7-41.26z" class="h g"/>
      <path d="M44.94 183.58h-.06L-24 172.07a.37.37 0 0 1-.31-.38L-23 129a.38.38 0 0 1 .22-.33.37.37 0 0 1 .39 0l67.53 54.1a.37.37 0 0 1 .22.34.36.36 0 0 1-.38.38zm-68.5-12.2l67.14 11.22-65.88-52.79z" class="h g"/>
      <path d="M106.37 205.82h-.13l-61.43-22.26a.38.38 0 0 1-.19-.54l25.21-42.12a.39.39 0 0 1 .33-.18.37.37 0 0 1 .32.19l36.22 64.36a.38.38 0 0 1-.33.55zM45.49 183l60.06 21.74-35.41-62.91z" class="h g"/>
      <path d="M168.4 272.91a.37.37 0 0 1-.28-.12l-62-67.09a.37.37 0 0 1 .22-.62l110.75-16.49a.37.37 0 0 1 .38.56l-48.72 83.58a.37.37 0 0 1-.28.18zm-61.27-67.2l61.2 66.2 48.07-82.47z" class="h g"/>
      <path d="M97.95 317.87a.37.37 0 0 1-.37-.4L106 205.41a.38.38 0 0 1 .65-.23l62 67.09a.37.37 0 0 1-.07.57l-70.46 45a.38.38 0 0 1-.17.03zm8.74-111.54l-8.31 110.45 69.45-44.32z" class="h g"/>
      <path d="M97.95 317.87a.37.37 0 0 1-.35-.24l-53-134.29a.38.38 0 0 1 .48-.49l61.44 22.24a.37.37 0 0 1 .25.38l-8.45 112.05a.37.37 0 0 1-.32.34h-.05zm-52.35-134l52.1 132L106 205.7z" class="h g"/>
    </g>
    <g class="d i">
      <g class="f">
        <path d="M71 236.14a.38.38 0 0 1-.18 0L53 226.21a.37.37 0 0 1 0-.68l22.61-9.24a.38.38 0 0 1 .51.44l-4.78 19.12a.37.37 0 0 1-.21.25.38.38 0 0 1-.13.04zm-17-10.21l16.72 9.27 4.48-17.93z" class="g"/>
        <path d="M53.14 226.26a.37.37 0 0 1-.28-.63l27.35-29.71a.37.37 0 0 1 .64.34l-4.74 20.47a.37.37 0 0 1-.22.26l-22.61 9.24a.36.36 0 0 1-.14.03zm26.66-28.79L54.55 224.9l20.88-8.53z" class="g"/>
        <path d="M75.75 217a.38.38 0 0 1-.37-.46l4.74-20.47a.37.37 0 0 1 .1-.18l24.18-23.48a.38.38 0 0 1 .58.48l-28.91 44a.37.37 0 0 1-.32.11zm5.08-20.66l-4.24 18.33 25.88-39.34z" class="g"/>
        <path d="M75.75 217a.38.38 0 0 1-.31-.58l28.91-44a.38.38 0 0 1 .37-.16l59.59 9.11a.38.38 0 0 1 .08.72L75.89 217zm29.09-43.92l-28.13 42.78L162.82 182z" class="g"/>
        <path d="M164.25 182.18h-.06l-59.59-9.11a.37.37 0 0 1-.3-.48l6.08-20.59a.37.37 0 0 1 .54-.22l53.45 29.62a.38.38 0 0 1 .27.36.38.38 0 0 1-.38.38zm-59.11-9.79l57.09 8.73L111 152.71zm-79.57 97.75a.37.37 0 0 1-.32-.57l27.57-43.88a.37.37 0 0 1 .5-.13l17.84 9.88a.37.37 0 0 1 0 .63l-45.4 34a.38.38 0 0 1-.19.07zm27.69-43.76L27 268.26l43.32-32.44z" class="g"/>
        <path d="M53.91 313.21a.38.38 0 0 1-.31-.17L25.26 270a.37.37 0 0 1 .09-.51l45.4-34a.38.38 0 0 1 .59.38l-17.07 77.05a.38.38 0 0 1-.3.29h-.06zm-27.83-43.35l27.65 42 16.66-75.21z" class="g"/>
        <path d="M53.91 313.21a.37.37 0 0 1-.37-.46l17.07-77.07a.36.36 0 0 1 .38-.29l112 3.76a.37.37 0 0 1 .17.7l-129 73.31a.38.38 0 0 1-.25.05zm17.37-77.06l-16.83 75.94 127.15-72.24z" class="g"/>
        <path d="M183 239.9l-112-3.76a.38.38 0 0 1-.35-.47l4.78-19.12a.38.38 0 0 1 .44-.28L183 239.15a.37.37 0 0 1 0 .75zm-111.55-4.49L178.73 239 76 217.09z" class="g"/>
        <path d="M182.95 239.9h-.08L75.67 217a.38.38 0 0 1-.06-.72l88.5-34.84a.38.38 0 0 1 .3 0 .37.37 0 0 1 .2.22l18.66 57.62a.37.37 0 0 1 .07.22.35.35 0 0 1-.38.38zM77 216.54L182.39 239 164 182.3z" class="g"/>
        <path d="M182.95 239.9a.37.37 0 0 1-.35-.52l25-62a.38.38 0 0 1 .38-.23.38.38 0 0 1 .34.29l14.05 60a.37.37 0 0 1-.35.46l-39 2zm24.87-61.1l-24.3 60.32 38-1.93z" class="g"/>
        <path d="M182.95 239.9a.38.38 0 0 1-.34-.26l-18.7-57.72a.38.38 0 0 1 0-.32.37.37 0 0 1 .28-.17l43.66-4.24a.36.36 0 0 1 .34.15.37.37 0 0 1 0 .37l-25 62a.38.38 0 0 1-.24.19zm-18.2-57.77L183 238.42 207.33 178z" class="g"/>
        <path d="M53.91 313.21a.38.38 0 0 1-.19-.7l129-73.31a.38.38 0 0 1 .43 0l61.62 51.49a.37.37 0 0 1-.2.66L53.95 313.21zm129-73.23L55.69 312.25l188-21.51z" class="g"/>
        <path d="M244.57 291.39a.37.37 0 0 1-.24-.09l-61.62-51.49a.37.37 0 0 1 .22-.66l39-2a.37.37 0 0 1 .36.23l22.57 53.38a.37.37 0 0 1 .09.24.35.35 0 0 1-.38.38zm-60.65-51.54l59.7 49.88-21.9-51.8z" class="g"/>
        <path d="M268.18 292.21l-23.61-.82a.38.38 0 0 1-.33-.23l-22.61-53.47a.37.37 0 0 1 .63-.39l46.22 54.3a.38.38 0 0 1-.3.61zm-23.36-1.56l22.52.79-44.08-51.79zM53.14 226.26a.38.38 0 0 1-.2-.06.38.38 0 0 1-.14-.46l18.75-45.46a.38.38 0 0 1 .33-.23.37.37 0 0 1 .35.2L80.81 196a.37.37 0 0 1-.05.43l-27.35 29.71a.38.38 0 0 1-.27.12zm18.8-45l-17.65 42.82 25.74-28z" class="g"/>
        <path d="M80.48 196.55h-.05a.37.37 0 0 1-.27-.19l-8.59-15.75a.38.38 0 0 1 .24-.54l32.77-7.74a.37.37 0 0 1 .35.63l-24.19 23.48a.37.37 0 0 1-.26.11zm-8-15.87l8.12 14.88 22.85-22.19z" class="g"/>
        <path d="M71.89 180.8a.38.38 0 0 1-.22-.68l38.85-28.27a.38.38 0 0 1 .58.41L105 172.8a.37.37 0 0 1-.27.26L72 180.79h-.11zm38.17-27.69l-36.44 26.52 30.75-7.26z" class="g"/>
        <path d="M164.25 182.18a.37.37 0 0 1-.18 0l-53.51-29.65a.38.38 0 0 1 0-.67l51.74-25.55a.37.37 0 0 1 .36 0 .38.38 0 0 1 .18.31l1.77 55.2a.38.38 0 0 1-.18.33.37.37 0 0 1-.18.03zm-52.7-30l52.31 29-1.73-54z" class="g"/>
        <path d="M110.74 152.53a.38.38 0 0 1-.37-.45l6.38-32a.37.37 0 0 1 .42-.3l45.35 6.46a.37.37 0 0 1 .11.71l-51.74 25.55a.37.37 0 0 1-.15.03zm6.68-32l-6.17 30.92 50-24.68z" class="g"/>
        <path d="M164.25 182.18a.38.38 0 0 1-.37-.36l-1.77-55.2a.37.37 0 0 1 .65-.26l45.44 51a.37.37 0 0 1-.24.62l-43.66 4.24zm-1.36-54.56l1.73 53.77 42.53-4.13z" class="g"/>
        <path d="M162.48 127h-.05l-45.35-6.46a.37.37 0 0 1-.32-.39l.39-8.79a.38.38 0 0 1 .5-.34l44.92 15.24a.38.38 0 0 1-.05.75zm-45-7.16l41 5.85-40.67-13.79z" class="g"/>
        <path d="M162.48 127h-.12l-45-15.25a.37.37 0 0 1 0-.69l34.51-16.59a.38.38 0 0 1 .52.22l10.42 31.73a.38.38 0 0 1 .07.22.37.37 0 0 1-.38.38zm-44-15.69L161.89 126 151.8 95.29z" class="g"/>
        <path d="M207.91 177.94a.37.37 0 0 1-.28-.12l-45.44-51a.38.38 0 0 1 0-.54l72.88-59.67a.37.37 0 0 1 .6.38l-27.39 110.66a.37.37 0 0 1-.27.27h-.09zM163 126.64l44.7 50.14 27-108.85z" class="g"/>
        <path d="M162.48 127h-.11a.37.37 0 0 1-.25-.24l-10.45-31.88a.38.38 0 0 1 .24-.47l83.34-27.83a.37.37 0 0 1 .36.65l-72.88 59.67a.37.37 0 0 1-.25.1zm-10-32l10.17 31 70.88-58zM53.91 313.21h-.09l-11.54-2.78a.37.37 0 0 1-.26-.22l-16.8-40.3a.38.38 0 0 1 .66-.35l28.33 43.07a.38.38 0 0 1-.3.58zm-11.27-3.48l10.44 2.52-25.62-38.94z" class="g"/>
        <path d="M314.25 173.89a.37.37 0 0 1-.3-.15L235.06 67.15a.38.38 0 0 1 .49-.55l103.72 61.5a.38.38 0 0 1 .14.5l-24.83 45.09a.38.38 0 0 1-.3.19zM236.76 68.2l77.44 104.62 24.37-44.26z" class="g"/>
        <path d="M207.91 177.94a.38.38 0 0 1-.29-.14.37.37 0 0 1-.07-.33L235 66.84a.37.37 0 0 1 .66-.13l78.89 106.59a.38.38 0 0 1-.29.6l-106.33 4.05zm27.62-110.15L208.4 177.17l105.13-4z" class="g"/>
        <path d="M283.77 211.18a.38.38 0 0 1-.29-.61L314 173.28a.37.37 0 0 1 .29-.14.38.38 0 0 1 .29.13l23.13 27.82a.38.38 0 0 1-.22.61l-53.6 9.46h-.07zm30.48-37.07l-29.55 36.15 52-9.18z" class="g"/>
        <path d="M268.18 292.21a.38.38 0 0 1-.29-.13l-46.22-54.3a.38.38 0 0 1 .14-.59l61.81-26.74a.38.38 0 0 1 .38.05.37.37 0 0 1 .13.36l-15.59 81a.38.38 0 0 1-.27.29h-.1zm-45.6-54.53L268 291l15.31-79.57z" class="g"/>
        <path d="M222 237.92a.38.38 0 0 1-.17 0 .38.38 0 0 1-.2-.25l-14.05-60a.37.37 0 0 1 .52-.43l75.86 33.24a.37.37 0 0 1 0 .69l-61.81 26.74a.37.37 0 0 1-.15.01zm-13.52-59.71L222.23 237l60.61-26.22z" class="g"/>
        <path d="M283.77 211.18a.37.37 0 0 1-.15 0l-75.86-33.24a.37.37 0 0 1 .14-.72l106.33-4.05a.36.36 0 0 1 .35.21.38.38 0 0 1 0 .4L284.06 211a.38.38 0 0 1-.29.18zm-74.21-33.3l74.1 32.47 29.77-36.42z" class="g"/>
      </g>
      <path d="M188.49 322l-90.54-4.09a.37.37 0 0 1-.18-.69l70.46-45a.38.38 0 0 1 .55.17l20.09 49.05a.37.37 0 0 1-.38.56zm-89.34-4.79l88.77 4-19.7-48.1z" class="h g"/>
      <path d="M340.39 454.17a.37.37 0 0 1-.25-.09l-151.9-132.21a.37.37 0 0 1-.11-.41l38.2-102a.37.37 0 0 1 .33-.24.37.37 0 0 1 .35.21l113.65 234.11a.37.37 0 0 1 .1.26.38.38 0 0 1-.37.37zM188.93 321.48l150.3 130.83-112.5-231.81z" class="h g"/>
      <path d="M188.49 322a.38.38 0 0 1-.35-.23l-20.09-49.05a.37.37 0 0 1 .09-.42l58.29-53a.37.37 0 0 1 .6.41l-38.2 102a.37.37 0 0 1-.34.24zm-19.64-49.33l19.63 47.93 37.32-99.69z" class="h g"/>
      <path d="M168.4 272.91a.38.38 0 0 1-.32-.56l48.72-83.58a.37.37 0 0 1 .68.08l9.52 30.58a.37.37 0 0 1-.11.39l-58.29 53a.38.38 0 0 1-.2.09zm48.62-83L170 270.62l56.3-51.19z" class="h g"/>
      <path d="M340.37 454.17a.38.38 0 0 1-.37-.17L226.35 219.71a.38.38 0 0 1 .22-.52l136.71-47.13a.37.37 0 0 1 .5.38l-23 281.39a.37.37 0 0 1-.3.34h-.07zM227.21 219.76l112.9 232.64L363 173zM-56 332.5a.36.36 0 0 1-.14 0 .37.37 0 0 1-.22-.42l32.07-160.43a.37.37 0 0 1 .43-.3L45 182.83a.38.38 0 0 1 .25.58l-101 148.92a.37.37 0 0 1-.25.17zm32.37-160.37l-31.66 158.25 99.59-146.9z" class="h g"/>
      <path d="M-56 332.5a.37.37 0 0 1-.32-.18.38.38 0 0 1 0-.4L44.63 183a.38.38 0 0 1 .35-.16.37.37 0 0 1 .31.23l53 134.29a.37.37 0 0 1-.31.51L-56 332.5zM44.85 184L-55.27 331.67l152.68-14.5zm205.59 7.11a.37.37 0 0 1-.11-.73l112.53-33.84a.37.37 0 0 1 .33.05.37.37 0 0 1 .16.29l.43 15.51a.38.38 0 0 1-.32.38l-113 18.33h-.06zm112.17-33.71L256 189.45l107-17.36z" class="h g"/>
      <path d="M226.69 219.92a.37.37 0 0 1-.29-.61l23.75-28.81a.38.38 0 0 1 .23-.13l113-18.33a.38.38 0 0 1 .18.72L226.81 219.9zm23.95-28.84l-22.81 27.67 131.32-45.28z" class="h g"/>
      <path d="M226.69 219.92h-.07a.38.38 0 0 1-.29-.26l-9.56-30.59a.38.38 0 0 1 .38-.49l33.31 1.78a.38.38 0 0 1 .27.61L227 219.79a.38.38 0 0 1-.31.13zm-9-30.56l9.2 29.42 22.84-27.7zm-172.75-5.78a.38.38 0 0 1-.23-.08l-67.59-54.15a.38.38 0 0 1-.12-.45.38.38 0 0 1 .39-.23l92.8 12a.38.38 0 0 1 .29.21.37.37 0 0 1 0 .36L45.26 183.4a.37.37 0 0 1-.26.18h-.06zm-66.31-54l66.21 53 24.7-41.26z" class="h g"/>
      <path d="M44.94 183.58h-.06L-24 172.07a.37.37 0 0 1-.31-.38L-23 129a.38.38 0 0 1 .22-.33.37.37 0 0 1 .39 0l67.53 54.1a.37.37 0 0 1 .22.34.36.36 0 0 1-.38.38zm-68.5-12.2l67.14 11.22-65.88-52.79z" class="h g"/>
      <path d="M106.37 205.82h-.13l-61.43-22.26a.38.38 0 0 1-.19-.54l25.21-42.12a.39.39 0 0 1 .33-.18.37.37 0 0 1 .32.19l36.22 64.36a.38.38 0 0 1-.33.55zM45.49 183l60.06 21.74-35.41-62.91z" class="h g"/>
      <path d="M168.4 272.91a.37.37 0 0 1-.28-.12l-62-67.09a.37.37 0 0 1 .22-.62l110.75-16.49a.37.37 0 0 1 .38.56l-48.72 83.58a.37.37 0 0 1-.28.18zm-61.27-67.2l61.2 66.2 48.07-82.47z" class="h g"/>
      <path d="M97.95 317.87a.37.37 0 0 1-.37-.4L106 205.41a.38.38 0 0 1 .65-.23l62 67.09a.37.37 0 0 1-.07.57l-70.46 45a.38.38 0 0 1-.17.03zm8.74-111.54l-8.31 110.45 69.45-44.32z" class="h g"/>
      <path d="M97.95 317.87a.37.37 0 0 1-.35-.24l-53-134.29a.38.38 0 0 1 .48-.49l61.44 22.24a.37.37 0 0 1 .25.38l-8.45 112.05a.37.37 0 0 1-.32.34h-.05zm-52.35-134l52.1 132L106 205.7z" class="h g"/>
    </g>
    <g class="d i">
      <g class="f">
        <path d="M71 236.14a.38.38 0 0 1-.18 0L53 226.21a.37.37 0 0 1 0-.68l22.61-9.24a.38.38 0 0 1 .51.44l-4.78 19.12a.37.37 0 0 1-.21.25.38.38 0 0 1-.13.04zm-17-10.21l16.72 9.27 4.48-17.93z" class="g"/>
        <path d="M53.14 226.26a.37.37 0 0 1-.28-.63l27.35-29.71a.37.37 0 0 1 .64.34l-4.74 20.47a.37.37 0 0 1-.22.26l-22.61 9.24a.36.36 0 0 1-.14.03zm26.66-28.79L54.55 224.9l20.88-8.53z" class="g"/>
        <path d="M75.75 217a.38.38 0 0 1-.37-.46l4.74-20.47a.37.37 0 0 1 .1-.18l24.18-23.48a.38.38 0 0 1 .58.48l-28.91 44a.37.37 0 0 1-.32.11zm5.08-20.66l-4.24 18.33 25.88-39.34z" class="g"/>
        <path d="M75.75 217a.38.38 0 0 1-.31-.58l28.91-44a.38.38 0 0 1 .37-.16l59.59 9.11a.38.38 0 0 1 .08.72L75.89 217zm29.09-43.92l-28.13 42.78L162.82 182z" class="g"/>
        <path d="M164.25 182.18h-.06l-59.59-9.11a.37.37 0 0 1-.3-.48l6.08-20.59a.37.37 0 0 1 .54-.22l53.45 29.62a.38.38 0 0 1 .27.36.38.38 0 0 1-.38.38zm-59.11-9.79l57.09 8.73L111 152.71zm-79.57 97.75a.37.37 0 0 1-.32-.57l27.57-43.88a.37.37 0 0 1 .5-.13l17.84 9.88a.37.37 0 0 1 0 .63l-45.4 34a.38.38 0 0 1-.19.07zm27.69-43.76L27 268.26l43.32-32.44z" class="g"/>
        <path d="M53.91 313.21a.38.38 0 0 1-.31-.17L25.26 270a.37.37 0 0 1 .09-.51l45.4-34a.38.38 0 0 1 .59.38l-17.07 77.05a.38.38 0 0 1-.3.29h-.06zm-27.83-43.35l27.65 42 16.66-75.21z" class="g"/>
        <path d="M53.91 313.21a.37.37 0 0 1-.37-.46l17.07-77.07a.36.36 0 0 1 .38-.29l112 3.76a.37.37 0 0 1 .17.7l-129 73.31a.38.38 0 0 1-.25.05zm17.37-77.06l-16.83 75.94 127.15-72.24z" class="g"/>
        <path d="M183 239.9l-112-3.76a.38.38 0 0 1-.35-.47l4.78-19.12a.38.38 0 0 1 .44-.28L183 239.15a.37.37 0 0 1 0 .75zm-111.55-4.49L178.73 239 76 217.09z" class="g"/>
        <path d="M182.95 239.9h-.08L75.67 217a.38.38 0 0 1-.06-.72l88.5-34.84a.38.38 0 0 1 .3 0 .37.37 0 0 1 .2.22l18.66 57.62a.37.37 0 0 1 .07.22.35.35 0 0 1-.38.38zM77 216.54L182.39 239 164 182.3z" class="g"/>
        <path d="M182.95 239.9a.37.37 0 0 1-.35-.52l25-62a.38.38 0 0 1 .38-.23.38.38 0 0 1 .34.29l14.05 60a.37.37 0 0 1-.35.46l-39 2zm24.87-61.1l-24.3 60.32 38-1.93z" class="g"/>
        <path d="M182.95 239.9a.38.38 0 0 1-.34-.26l-18.7-57.72a.38.38 0 0 1 0-.32.37.37 0 0 1 .28-.17l43.66-4.24a.36.36 0 0 1 .34.15.37.37 0 0 1 0 .37l-25 62a.38.38 0 0 1-.24.19zm-18.2-57.77L183 238.42 207.33 178z" class="g"/>
        <path d="M53.91 313.21a.38.38 0 0 1-.19-.7l129-73.31a.38.38 0 0 1 .43 0l61.62 51.49a.37.37 0 0 1-.2.66L53.95 313.21zm129-73.23L55.69 312.25l188-21.51z" class="g"/>
        <path d="M244.57 291.39a.37.37 0 0 1-.24-.09l-61.62-51.49a.37.37 0 0 1 .22-.66l39-2a.37.37 0 0 1 .36.23l22.57 53.38a.37.37 0 0 1 .09.24.35.35 0 0 1-.38.38zm-60.65-51.54l59.7 49.88-21.9-51.8z" class="g"/>
        <path d="M268.18 292.21l-23.61-.82a.38.38 0 0 1-.33-.23l-22.61-53.47a.37.37 0 0 1 .63-.39l46.22 54.3a.38.38 0 0 1-.3.61zm-23.36-1.56l22.52.79-44.08-51.79zM53.14 226.26a.38.38 0 0 1-.2-.06.38.38 0 0 1-.14-.46l18.75-45.46a.38.38 0 0 1 .33-.23.37.37 0 0 1 .35.2L80.81 196a.37.37 0 0 1-.05.43l-27.35 29.71a.38.38 0 0 1-.27.12zm18.8-45l-17.65 42.82 25.74-28z" class="g"/>
        <path d="M80.48 196.55h-.05a.37.37 0 0 1-.27-.19l-8.59-15.75a.38.38 0 0 1 .24-.54l32.77-7.74a.37.37 0 0 1 .35.63l-24.19 23.48a.37.37 0 0 1-.26.11zm-8-15.87l8.12 14.88 22.85-22.19z" class="g"/>
        <path d="M71.89 180.8a.38.38 0 0 1-.22-.68l38.85-28.27a.38.38 0 0 1 .58.41L105 172.8a.37.37 0 0 1-.27.26L72 180.79h-.11zm38.17-27.69l-36.44 26.52 30.75-7.26z" class="g"/>
        <path d="M164.25 182.18a.37.37 0 0 1-.18 0l-53.51-29.65a.38.38 0 0 1 0-.67l51.74-25.55a.37.37 0 0 1 .36 0 .38.38 0 0 1 .18.31l1.77 55.2a.38.38 0 0 1-.18.33.37.37 0 0 1-.18.03zm-52.7-30l52.31 29-1.73-54z" class="g"/>
        <path d="M110.74 152.53a.38.38 0 0 1-.37-.45l6.38-32a.37.37 0 0 1 .42-.3l45.35 6.46a.37.37 0 0 1 .11.71l-51.74 25.55a.37.37 0 0 1-.15.03zm6.68-32l-6.17 30.92 50-24.68z" class="g"/>
        <path d="M164.25 182.18a.38.38 0 0 1-.37-.36l-1.77-55.2a.37.37 0 0 1 .65-.26l45.44 51a.37.37 0 0 1-.24.62l-43.66 4.24zm-1.36-54.56l1.73 53.77 42.53-4.13z" class="g"/>
        <path d="M162.48 127h-.05l-45.35-6.46a.37.37 0 0 1-.32-.39l.39-8.79a.38.38 0 0 1 .5-.34l44.92 15.24a.38.38 0 0 1-.05.75zm-45-7.16l41 5.85-40.67-13.79z" class="g"/>
        <path d="M162.48 127h-.12l-45-15.25a.37.37 0 0 1 0-.69l34.51-16.59a.38.38 0 0 1 .52.22l10.42 31.73a.38.38 0 0 1 .07.22.37.37 0 0 1-.38.38zm-44-15.69L161.89 126 151.8 95.29z" class="g"/>
        <path d="M207.91 177.94a.37.37 0 0 1-.28-.12l-45.44-51a.38.38 0 0 1 0-.54l72.88-59.67a.37.37 0 0 1 .6.38l-27.39 110.66a.37.37 0 0 1-.27.27h-.09zM163 126.64l44.7 50.14 27-108.85z" class="g"/>
        <path d="M162.48 127h-.11a.37.37 0 0 1-.25-.24l-10.45-31.88a.38.38 0 0 1 .24-.47l83.34-27.83a.37.37 0 0 1 .36.65l-72.88 59.67a.37.37 0 0 1-.25.1zm-10-32l10.17 31 70.88-58zM53.91 313.21h-.09l-11.54-2.78a.37.37 0 0 1-.26-.22l-16.8-40.3a.38.38 0 0 1 .66-.35l28.33 43.07a.38.38 0 0 1-.3.58zm-11.27-3.48l10.44 2.52-25.62-38.94z" class="g"/>
        <path d="M314.25 173.89a.37.37 0 0 1-.3-.15L235.06 67.15a.38.38 0 0 1 .49-.55l103.72 61.5a.38.38 0 0 1 .14.5l-24.83 45.09a.38.38 0 0 1-.3.19zM236.76 68.2l77.44 104.62 24.37-44.26z" class="g"/>
        <path d="M207.91 177.94a.38.38 0 0 1-.29-.14.37.37 0 0 1-.07-.33L235 66.84a.37.37 0 0 1 .66-.13l78.89 106.59a.38.38 0 0 1-.29.6l-106.33 4.05zm27.62-110.15L208.4 177.17l105.13-4z" class="g"/>
        <path d="M283.77 211.18a.38.38 0 0 1-.29-.61L314 173.28a.37.37 0 0 1 .29-.14.38.38 0 0 1 .29.13l23.13 27.82a.38.38 0 0 1-.22.61l-53.6 9.46h-.07zm30.48-37.07l-29.55 36.15 52-9.18z" class="g"/>
        <path d="M268.18 292.21a.38.38 0 0 1-.29-.13l-46.22-54.3a.38.38 0 0 1 .14-.59l61.81-26.74a.38.38 0 0 1 .38.05.37.37 0 0 1 .13.36l-15.59 81a.38.38 0 0 1-.27.29h-.1zm-45.6-54.53L268 291l15.31-79.57z" class="g"/>
        <path d="M222 237.92a.38.38 0 0 1-.17 0 .38.38 0 0 1-.2-.25l-14.05-60a.37.37 0 0 1 .52-.43l75.86 33.24a.37.37 0 0 1 0 .69l-61.81 26.74a.37.37 0 0 1-.15.01zm-13.52-59.71L222.23 237l60.61-26.22z" class="g"/>
        <path d="M283.77 211.18a.37.37 0 0 1-.15 0l-75.86-33.24a.37.37 0 0 1 .14-.72l106.33-4.05a.36.36 0 0 1 .35.21.38.38 0 0 1 0 .4L284.06 211a.38.38 0 0 1-.29.18zm-74.21-33.3l74.1 32.47 29.77-36.42z" class="g"/>
      </g>
      <path d="M188.49 322l-90.54-4.09a.37.37 0 0 1-.18-.69l70.46-45a.38.38 0 0 1 .55.17l20.09 49.05a.37.37 0 0 1-.38.56zm-89.34-4.79l88.77 4-19.7-48.1z" class="h g"/>
      <path d="M340.39 454.17a.37.37 0 0 1-.25-.09l-151.9-132.21a.37.37 0 0 1-.11-.41l38.2-102a.37.37 0 0 1 .33-.24.37.37 0 0 1 .35.21l113.65 234.11a.37.37 0 0 1 .1.26.38.38 0 0 1-.37.37zM188.93 321.48l150.3 130.83-112.5-231.81z" class="h g"/>
      <path d="M188.49 322a.38.38 0 0 1-.35-.23l-20.09-49.05a.37.37 0 0 1 .09-.42l58.29-53a.37.37 0 0 1 .6.41l-38.2 102a.37.37 0 0 1-.34.24zm-19.64-49.33l19.63 47.93 37.32-99.69z" class="h g"/>
      <path d="M168.4 272.91a.38.38 0 0 1-.32-.56l48.72-83.58a.37.37 0 0 1 .68.08l9.52 30.58a.37.37 0 0 1-.11.39l-58.29 53a.38.38 0 0 1-.2.09zm48.62-83L170 270.62l56.3-51.19z" class="h g"/>
      <path d="M340.37 454.17a.38.38 0 0 1-.37-.17L226.35 219.71a.38.38 0 0 1 .22-.52l136.71-47.13a.37.37 0 0 1 .5.38l-23 281.39a.37.37 0 0 1-.3.34h-.07zM227.21 219.76l112.9 232.64L363 173zM-56 332.5a.36.36 0 0 1-.14 0 .37.37 0 0 1-.22-.42l32.07-160.43a.37.37 0 0 1 .43-.3L45 182.83a.38.38 0 0 1 .25.58l-101 148.92a.37.37 0 0 1-.25.17zm32.37-160.37l-31.66 158.25 99.59-146.9z" class="h g"/>
      <path d="M-56 332.5a.37.37 0 0 1-.32-.18.38.38 0 0 1 0-.4L44.63 183a.38.38 0 0 1 .35-.16.37.37 0 0 1 .31.23l53 134.29a.37.37 0 0 1-.31.51L-56 332.5zM44.85 184L-55.27 331.67l152.68-14.5zm205.59 7.11a.37.37 0 0 1-.11-.73l112.53-33.84a.37.37 0 0 1 .33.05.37.37 0 0 1 .16.29l.43 15.51a.38.38 0 0 1-.32.38l-113 18.33h-.06zm112.17-33.71L256 189.45l107-17.36z" class="h g"/>
      <path d="M226.69 219.92a.37.37 0 0 1-.29-.61l23.75-28.81a.38.38 0 0 1 .23-.13l113-18.33a.38.38 0 0 1 .18.72L226.81 219.9zm23.95-28.84l-22.81 27.67 131.32-45.28z" class="h g"/>
      <path d="M226.69 219.92h-.07a.38.38 0 0 1-.29-.26l-9.56-30.59a.38.38 0 0 1 .38-.49l33.31 1.78a.38.38 0 0 1 .27.61L227 219.79a.38.38 0 0 1-.31.13zm-9-30.56l9.2 29.42 22.84-27.7zm-172.75-5.78a.38.38 0 0 1-.23-.08l-67.59-54.15a.38.38 0 0 1-.12-.45.38.38 0 0 1 .39-.23l92.8 12a.38.38 0 0 1 .29.21.37.37 0 0 1 0 .36L45.26 183.4a.37.37 0 0 1-.26.18h-.06zm-66.31-54l66.21 53 24.7-41.26z" class="h g"/>
      <path d="M44.94 183.58h-.06L-24 172.07a.37.37 0 0 1-.31-.38L-23 129a.38.38 0 0 1 .22-.33.37.37 0 0 1 .39 0l67.53 54.1a.37.37 0 0 1 .22.34.36.36 0 0 1-.38.38zm-68.5-12.2l67.14 11.22-65.88-52.79z" class="h g"/>
      <path d="M106.37 205.82h-.13l-61.43-22.26a.38.38 0 0 1-.19-.54l25.21-42.12a.39.39 0 0 1 .33-.18.37.37 0 0 1 .32.19l36.22 64.36a.38.38 0 0 1-.33.55zM45.49 183l60.06 21.74-35.41-62.91z" class="h g"/>
      <path d="M168.4 272.91a.37.37 0 0 1-.28-.12l-62-67.09a.37.37 0 0 1 .22-.62l110.75-16.49a.37.37 0 0 1 .38.56l-48.72 83.58a.37.37 0 0 1-.28.18zm-61.27-67.2l61.2 66.2 48.07-82.47z" class="h g"/>
      <path d="M97.95 317.87a.37.37 0 0 1-.37-.4L106 205.41a.38.38 0 0 1 .65-.23l62 67.09a.37.37 0 0 1-.07.57l-70.46 45a.38.38 0 0 1-.17.03zm8.74-111.54l-8.31 110.45 69.45-44.32z" class="h g"/>
      <path d="M97.95 317.87a.37.37 0 0 1-.35-.24l-53-134.29a.38.38 0 0 1 .48-.49l61.44 22.24a.37.37 0 0 1 .25.38l-8.45 112.05a.37.37 0 0 1-.32.34h-.05zm-52.35-134l52.1 132L106 205.7z" class="h g"/>
    </g>
  </g>
</svg>
